<svg fill="#000000" xmlns="http://www.w3.org/2000/svg" viewBox="0 0 50 50" width="50px" height="50px"><path d="M 23.439453 4 C 21.689454 4 20.249679 4.6922556 19.316406 5.7421875 C 18.383134 6.7921194 17.939453 8.1527779 17.939453 9.5 C 17.939453 10.847222 18.383134 12.207881 19.316406 13.257812 C 20.249679 14.307745 21.689454 15 23.439453 15 C 25.189453 15 26.627274 14.307744 27.560547 13.257812 C 28.493819 12.207882 28.939453 10.847222 28.939453 9.5 C 28.939453 9.4047113 28.920489 9.3101522 28.916016 9.2148438 C 28.915524 9.204413 28.914613 9.1940219 28.914062 9.1835938 C 28.849376 7.9419821 28.420587 6.709733 27.560547 5.7421875 C 26.627274 4.6922556 25.189453 4 23.439453 4 z M 23.591797 6.0136719 C 23.66214 6.015878 23.723541 6.0262381 23.791016 6.03125 C 24.563555 6.1036664 25.316114 6.4270755 25.914062 7.0253906 C 26.872283 7.9841963 26.928934 9.2852696 26.544922 10.484375 L 22.455078 6.3945312 C 22.840851 6.2709476 23.19552 6.0131086 23.591797 6.0136719 z M 20.597656 7.3652344 L 25.595703 12.363281 C 25.06972 12.755454 24.378989 13 23.439453 13 C 22.189454 13 21.377274 12.567256 20.810547 11.929688 C 20.24382 11.292118 19.939453 10.402778 19.939453 9.5 C 19.939453 8.7250286 20.175652 7.9696364 20.597656 7.3652344 z M 29.8125 16 C 27.603329 16 25.963827 17.319718 24.773438 18.910156 L 21.216797 23.583984 L 16.757812 19.880859 C 15.280017 18.653537 13.056294 18.858795 11.828125 20.335938 A 1.0001 1.0001 0 0 0 11.828125 20.337891 C 10.600803 21.815687 10.806062 24.037456 12.283203 25.265625 L 19.554688 31.302734 C 19.723475 31.454644 19.640785 31.373633 19.609375 31.345703 A 1.0001 1.0001 0 0 0 19.65625 31.384766 C 19.804463 31.500758 19.811869 31.493544 19.753906 31.449219 C 21.02264 32.382181 22.725879 32.282675 23.939453 31.341797 L 23.939453 34.677734 L 17.050781 39.703125 A 1.0001 1.0001 0 0 0 17.033203 39.714844 C 15.739898 40.699944 15.30038 42.464106 15.970703 43.941406 C 15.981953 43.966276 16.011647 43.97549 16.023438 44 L 12 44 A 1.0001 1.0001 0 1 0 12 46 L 19.154297 46 L 35.480469 46 L 43 46 A 1.0001 1.0001 0 1 0 43 44 L 38.607422 44 C 38.830734 43.540463 38.980469 43.041689 38.980469 42.5 C 38.980469 40.578812 37.401657 39 35.480469 39 L 34.697266 39 C 35.434128 38.093609 35.9375 36.986585 35.9375 35.734375 L 35.9375 21.873047 C 35.9375 18.64148 33.29602 16 30.064453 16 L 29.8125 16 z M 29.8125 18 L 30.064453 18 C 32.214886 18 33.9375 19.722614 33.9375 21.873047 L 33.9375 35.734375 C 33.9375 37.549911 32.487411 39 30.671875 39 L 26.601562 39 A 1.0001 1.0001 0 1 0 26.601562 41 L 30.658203 41 L 31.859375 41 L 35.480469 41 C 36.32128 41 36.980469 41.659188 36.980469 42.5 C 36.980469 43.340812 36.32128 44 35.480469 44 L 19.154297 44 C 18.625921 44 18.011413 43.598494 17.792969 43.115234 C 17.531292 42.538535 17.743399 41.68954 18.246094 41.306641 L 25.529297 35.992188 A 1.0001 1.0001 0 0 0 25.939453 35.185547 L 25.939453 28.958984 L 28.917969 25.03125 A 1.0001 1.0001 0 1 0 27.324219 23.824219 L 24.261719 27.863281 A 1.0001 1.0001 0 0 0 24.126953 28.013672 C 24.126953 28.013672 23.913795 28.310115 23.728516 28.566406 L 23.171875 29.300781 A 1.0001 1.0001 0 0 0 23.0625 29.480469 C 23.03304 29.519359 22.957809 29.616227 22.976562 29.59375 A 1.0001 1.0001 0 0 0 22.974609 29.595703 C 22.458344 30.217044 21.580793 30.310936 20.9375 29.837891 A 1.0001 1.0001 0 0 0 20.923828 29.826172 C 20.848307 29.772678 20.808079 29.744801 20.802734 29.742188 L 13.5625 23.728516 C 12.915641 23.190685 12.830509 22.261438 13.367188 21.615234 C 13.9052 20.969698 14.832795 20.883646 15.478516 21.419922 L 20.740234 25.789062 A 1.0001 1.0001 0 0 0 22.173828 25.625 L 26.371094 20.115234 A 1.0001 1.0001 0 0 0 26.375 20.109375 C 27.380617 18.765854 28.363671 18 29.8125 18 z M 20.863281 29.791016 C 20.875675 29.800774 20.870664 29.796454 20.888672 29.810547 L 20.9375 29.851562 C 20.85208 29.775633 20.743788 29.682501 20.892578 29.816406 A 1.0001 1.0001 0 0 0 20.863281 29.791016 z"/></svg>