<svg height='300px' width='300px'  fill="#000000" xmlns="http://www.w3.org/2000/svg" xmlns:xlink="http://www.w3.org/1999/xlink" version="1.1" x="0px" y="0px" viewBox="0 0 100 100" enable-background="new 0 0 100 100" xml:space="preserve"><g><g><path d="M50,33.938c-8.855,0-16.059,7.207-16.059,16.062c0,8.855,7.203,16.063,16.059,16.063c8.854,0,16.059-7.207,16.059-16.063    C66.059,41.145,58.854,33.938,50,33.938z M50,62.876c-7.101,0-12.876-5.778-12.876-12.876c0-7.097,5.775-12.876,12.876-12.876    c7.097,0,12.876,5.779,12.876,12.876C62.876,57.098,57.097,62.876,50,62.876z"></path><path d="M91.832,61.177l-9.396-5.428C82.771,53.83,82.94,51.904,82.94,50s-0.169-3.838-0.505-5.75l9.393-5.427    c1.523-0.879,2.044-2.827,1.165-4.351l-8.049-13.945c-0.568-0.988-1.626-1.597-2.762-1.597c-0.557,0-1.106,0.146-1.59,0.425    l-9.4,5.427c-2.97-2.498-6.31-4.431-9.957-5.757V8.186C61.235,6.428,59.808,5,58.054,5H41.947c-1.755,0-3.183,1.428-3.183,3.186    v10.84c-3.647,1.326-6.987,3.252-9.957,5.757l-9.4-5.427c-0.483-0.278-1.032-0.425-1.59-0.425c-1.135,0-2.193,0.608-2.761,1.597    L7.004,34.473c-0.876,1.523-0.352,3.472,1.164,4.351l9.397,5.427c-0.337,1.912-0.506,3.838-0.506,5.75    c0,1.911,0.169,3.838,0.506,5.749l-9.397,5.428c-1.516,0.879-2.04,2.827-1.161,4.351l8.05,13.945    c0.567,0.98,1.626,1.59,2.761,1.59c0.558,0,1.103-0.147,1.59-0.425l9.4-5.428c2.97,2.505,6.31,4.438,9.957,5.757v10.847    c0,1.758,1.428,3.187,3.183,3.187h16.106c1.754,0,3.182-1.429,3.182-3.187V80.967c3.647-1.318,6.987-3.252,9.957-5.757l9.4,5.428    c0.483,0.277,1.033,0.425,1.59,0.425c1.136,0,2.193-0.609,2.762-1.59l8.049-13.945C93.872,64.004,93.352,62.056,91.832,61.177z     M82.186,77.883L71.8,71.885c-0.596-0.345-1.347-0.264-1.863,0.198c-3.139,2.841-6.768,4.936-10.781,6.232    c-0.659,0.213-1.102,0.828-1.102,1.517l0.003,11.981H41.947V79.832c0-0.688-0.443-1.304-1.103-1.517    c-4.014-1.297-7.643-3.392-10.78-6.232c-0.301-0.271-0.686-0.411-1.07-0.411c-0.271,0-0.546,0.073-0.794,0.213l-10.386,5.998    L9.761,63.931l10.375-5.991c0.597-0.352,0.904-1.032,0.762-1.706c-0.433-2.065-0.656-4.161-0.656-6.233    c0-2.073,0.224-4.167,0.656-6.233c0.143-0.674-0.165-1.362-0.762-1.707L9.761,36.069l8.054-13.953L28.2,28.108    c0.596,0.344,1.351,0.271,1.864-0.198c3.138-2.834,6.767-4.929,10.78-6.233c0.659-0.205,1.103-0.82,1.103-1.509V8.186h16.106    v11.982c0,0.689,0.442,1.304,1.102,1.509c4.014,1.304,7.643,3.398,10.781,6.233c0.517,0.469,1.268,0.542,1.863,0.198l10.386-5.991    l8.054,13.953l-10.374,5.991c-0.598,0.344-0.905,1.033-0.763,1.707c0.437,2.073,0.652,4.167,0.652,6.233s-0.216,4.16-0.652,6.233    c-0.143,0.674,0.165,1.354,0.763,1.706l10.374,5.991L82.186,77.883z"></path></g></g></svg>