<svg xmlns="http://www.w3.org/2000/svg" viewBox="0 0 64 64">
  <defs/>
  <path d="M56.05 51.44H10.59a1 1 0 010-2h44.46v-36H13.54a1 1 0 010-2h42.51a1 1 0 011 1v38a1 1 0 01-1 1z"/>
  <path d="M13.76 47.39a1 1 0 01-1-1V13.61A3.52 3.52 0 009 10.39a3.52 3.52 0 00-3.76 3.22v32.78a1 1 0 01-2 0V13.61A5.51 5.51 0 019 8.39a5.51 5.51 0 015.75 5.22v32.78a1 1 0 01-.99 1z"/>
  <path d="M9 51.61a5.76 5.76 0 115.75-5.75A5.76 5.76 0 019 51.61zm0-9.51a3.76 3.76 0 103.75 3.76A3.77 3.77 0 009 42.1z"/>
  <path d="M34.91 44H13.76a1 1 0 01-1-1V19.79a1 1 0 011-1h21.15a12.63 12.63 0 110 25.25zm-20.15-2h20.15a10.63 10.63 0 100-21.25H14.76z"/>
  <path d="M31.47 39.29H17.73a1 1 0 01-1-1V24.54a1 1 0 011-1h13.74a7.88 7.88 0 010 15.75zm-12.74-2h12.74a5.88 5.88 0 000-11.75H18.73z"/>
  <path d="M50.76 47.21H39.14a1 1 0 010-2h10.62v-27.6H39.14a1 1 0 010-2h11.62a1 1 0 011 1v29.6a1 1 0 01-1 1zM59.75 15h-3.7a1 1 0 010-2h3.7a1 1 0 010 2zM59.75 18.13h-3.7a1 1 0 010-2h3.7a1 1 0 010 2zM59.75 21.3h-3.7a1 1 0 010-2h3.7a1 1 0 010 2zM59.75 24.47h-3.7a1 1 0 010-2h3.7a1 1 0 010 2zM59.75 27.64h-3.7a1 1 0 010-2h3.7a1 1 0 010 2zM59.75 30.81h-3.7a1 1 0 010-2h3.7a1 1 0 010 2zM59.75 34h-3.7a1 1 0 010-2h3.7a1 1 0 110 2zM59.75 37.16h-3.7a1 1 0 010-2h3.7a1 1 0 010 2zM59.75 40.33h-3.7a1 1 0 010-2h3.7a1 1 0 010 2zM59.75 43.5h-3.7a1 1 0 010-2h3.7a1 1 0 010 2zM59.75 46.67h-3.7a1 1 0 010-2h3.7a1 1 0 010 2zM59.75 49.84h-3.7a1 1 0 010-2h3.7a1 1 0 010 2z"/>
</svg>