<?xml version="1.0" encoding="iso-8859-1"?>
<!-- Generator: Adobe Illustrator 19.0.0, SVG Export Plug-In . SVG Version: 6.00 Build 0)  -->
<svg version="1.1" id="Layer_1" xmlns="http://www.w3.org/2000/svg" xmlns:xlink="http://www.w3.org/1999/xlink" x="0px" y="0px"
	 viewBox="0 0 512 512" style="enable-background:new 0 0 512 512;" xml:space="preserve">
<g>
	<g>
		<path style="fill:#010101;" d="M360.579,192.817H21.787C9.804,192.817,0,202.621,0,214.604v275.609
			C0,502.196,9.804,512,21.787,512h337.702c11.983,0,21.787-9.804,22.877-21.787V214.604
			C382.366,202.621,372.562,192.817,360.579,192.817z M338.792,469.515H42.485V236.391h296.306V469.515z"/>
	</g>
</g>
<g id="SVGCleanerId_0">
	<g>
		<path style="fill:#010101;" d="M190.638,42.485c-103.489,0-187.37,77.345-188.46,172.119c0,11.983,9.804,21.787,21.787,21.787
			c11.983,0,21.787-9.804,21.787-21.787c0-71.898,64.272-129.634,144.885-129.634c79.523,0,144.885,57.736,144.885,129.634
			c0,11.983,9.804,21.787,21.787,21.787c11.983,0,21.787-9.804,21.787-21.787C379.098,119.83,294.128,42.485,190.638,42.485z"/>
	</g>
</g>
<g>
	<g>
		<path style="fill:#010101;" d="M190.638,42.485c-103.489,0-187.37,77.345-188.46,172.119c0,11.983,9.804,21.787,21.787,21.787
			c11.983,0,21.787-9.804,21.787-21.787c0-71.898,64.272-129.634,144.885-129.634c79.523,0,144.885,57.736,144.885,129.634
			c0,11.983,9.804,21.787,21.787,21.787c11.983,0,21.787-9.804,21.787-21.787C379.098,119.83,294.128,42.485,190.638,42.485z"/>
	</g>
</g>
<g id="SVGCleanerId_1">
	<g>
		<path style="fill:#010101;" d="M275.609,214.604c0-86.06-30.502-172.119-87.149-172.119c-57.736,0-87.149,86.06-87.149,172.119
			c0,11.983,9.804,21.787,21.787,21.787c11.983,0,21.787-9.804,21.787-21.787c0-83.881,29.413-129.634,44.664-129.634
			s44.664,45.753,44.664,129.634c0,11.983,9.804,21.787,21.787,21.787C267.983,236.391,277.787,226.587,275.609,214.604z"/>
	</g>
</g>
<g>
	<g>
		<path style="fill:#010101;" d="M275.609,214.604c0-86.06-30.502-172.119-87.149-172.119c-57.736,0-87.149,86.06-87.149,172.119
			c0,11.983,9.804,21.787,21.787,21.787c11.983,0,21.787-9.804,21.787-21.787c0-83.881,29.413-129.634,44.664-129.634
			s44.664,45.753,44.664,129.634c0,11.983,9.804,21.787,21.787,21.787C267.983,236.391,277.787,226.587,275.609,214.604z"/>
	</g>
</g>
<g>
	<g>
		<g>
			<path style="fill:#010101;" d="M192.817,322.451h-4.357c-35.949,0-65.362,29.413-65.362,65.362v102.4
				c0,11.983,9.804,21.787,21.787,21.787h92.596c10.894,0,20.698-9.804,20.698-21.787v-102.4
				C258.179,351.864,228.766,322.451,192.817,322.451z M215.694,469.515h-50.111c0,0,0-81.702,0-81.702
				c0-13.072,9.804-22.877,22.877-22.877h4.357c13.072,0,22.877,9.804,22.877,22.877V469.515z"/>
			<path style="fill:#010101;" d="M447.728,27.781v-4.904c0-11.983-9.804-21.787-21.787-21.787s-21.787,9.804-21.787,21.787v4.97
				c-37.199,9.741-64.272,43.796-64.272,83.268v379.098c0,11.983,9.804,21.787,21.787,21.787h128.545
				c11.983,0,21.787-9.804,21.787-21.787V111.115C512,70.725,484.926,37.301,447.728,27.781z M469.515,469.515h-84.97v-358.4
				c0-22.877,18.519-42.485,42.485-42.485c22.877,0,42.485,18.519,42.485,42.485V469.515z"/>
			<path style="fill:#010101;" d="M190.638,84.97c11.983,0,21.787-8.715,21.787-20.698V21.787C212.426,9.804,202.621,0,190.638,0
				s-21.787,9.804-21.787,21.787v41.396C168.851,75.166,178.655,84.97,190.638,84.97z"/>
		</g>
	</g>
</g>
<g>
</g>
<g>
</g>
<g>
</g>
<g>
</g>
<g>
</g>
<g>
</g>
<g>
</g>
<g>
</g>
<g>
</g>
<g>
</g>
<g>
</g>
<g>
</g>
<g>
</g>
<g>
</g>
<g>
</g>
</svg>
