<svg height='300px' width='300px'  fill="#000000" xmlns="http://www.w3.org/2000/svg" viewBox="0 0 24 24" enable-background="new 0 0 24 24" x="0px" y="0px"><g><path d="M12 24c-6.617 0-12-5.383-12-12 0-.552.448-1 1-1s1 .448 1 1c0 5.514 4.486 10 10 10s10-4.486 10-10-4.486-10-10-10c-.552 0-1-.448-1-1s.448-1 1-1c6.617 0 12 5.383 12 12s-5.383 12-12 12zM1 13c-.26 0-.52-.11-.71-.29-.18-.19-.29-.45-.29-.71 0-.26.11-.52.29-.71.38-.37 1.04-.37 1.42 0 .18.19.29.45.29.71 0 .26-.11.52-.29.71-.19.18-.45.29-.71.29zM1.45 8.71c-.51-.21-.75-.79-.54-1.3.21-.51.8-.76 1.31-.55.51.21.75.8.54 1.31-.16.39-.53.62-.93.62-.12 0-.25-.03-.38-.08zm2.07-3.78c-.39-.39-.39-1.02 0-1.41.39-.39 1.02-.39 1.41 0 .39.39.39 1.02 0 1.41-.2.19-.45.29-.71.29-.25 0-.51-.1-.7-.29zm3.34-2.71c-.21-.51.03-1.1.54-1.31.51-.21 1.1.03 1.31.54.21.51-.03 1.1-.54 1.31-.13.05-.25.08-.38.08-.39 0-.77-.24-.93-.62zM12 2c-.26 0-.52-.11-.71-.29-.18-.19-.29-.45-.29-.71 0-.26.11-.52.29-.71.38-.37 1.05-.37 1.42 0 .18.19.29.45.29.71 0 .26-.11.52-.29.71-.19.18-.45.29-.71.29zM8.001 15c-.367 0-.72-.202-.896-.553-.247-.494-.047-1.095.447-1.342l3.448-1.723v-6.382c0-.552.448-1 1-1s1 .448 1 1v7c0 .379-.214.725-.553.895l-4 2c-.143.071-.296.105-.446.105z"></path></g></svg>