<svg xmlns="http://www.w3.org/2000/svg" width="331.001" height="89.041" viewBox="0 0 331.001 89.041">
  <g id="Group_129" data-name="Group 129" transform="translate(0.001 1.807)">
    <path id="Path_210" data-name="Path 210" d="M0,0H331V89.041H0Z" transform="translate(0 -1.807)" fill="#eb5211"/>
    <g id="sun" transform="translate(91.5 42.468) rotate(1)">
      <path id="Path_195" data-name="Path 195" d="M48.167,30.719a12.337,12.337,0,1,0,0,17.447A12.383,12.383,0,0,0,48.167,30.719Z" transform="translate(-9.738 -9.738)" fill="#ad3400"/>
      <path id="Path_196" data-name="Path 196" d="M48.94,11.073a1.233,1.233,0,0,1,.215,1.131L48.4,14.3a.56.56,0,0,0,.323.7c.054,0,.108.054.162.054a.517.517,0,0,0,.485-.377l.754-2.1a2.239,2.239,0,0,0-.323-2.154l-.915-1.185A1.3,1.3,0,0,1,48.724,8l.592-1.239a.53.53,0,0,0-.969-.431l-.538,1.185a2.241,2.241,0,0,0,.269,2.369Z" transform="translate(-19.181)" fill="#ad3400"/>
      <path id="Path_197" data-name="Path 197" d="M18.956,20.517a2.217,2.217,0,0,0,1.831,1.508l1.508.215a1.184,1.184,0,0,1,.915.646l.969,1.992a.517.517,0,0,0,.485.323.324.324,0,0,0,.215-.054.534.534,0,0,0,.269-.7l-.969-1.992A2.367,2.367,0,0,0,22.4,21.164l-1.508-.215a1.087,1.087,0,0,1-.969-.808l-.431-1.346a.56.56,0,0,0-.7-.323.539.539,0,0,0-.323.7Z" transform="translate(-5.729 -5.729)" fill="#ad3400"/>
      <path id="Path_198" data-name="Path 198" d="M15,48.93a.56.56,0,0,0-.323-.7l-2.1-.754a2.239,2.239,0,0,0-2.154.323l-1.185.969A1.3,1.3,0,0,1,8,48.93l-1.239-.592a.53.53,0,1,0-.431.969l1.185.538a2.112,2.112,0,0,0,.969.215,2.325,2.325,0,0,0,1.4-.485l1.239-.915a1.233,1.233,0,0,1,1.131-.215l2.1.754A.424.424,0,0,0,15,48.93Z" transform="translate(0 -19.064)" fill="#ad3400"/>
      <path id="Path_202" data-name="Path 202" d="M86,48.4l-1.292-.592a2.241,2.241,0,0,0-2.369.269l-1.239.915a1.233,1.233,0,0,1-1.131.215l-2.1-.754a.545.545,0,0,0-.377,1.023l2.1.754a1.833,1.833,0,0,0,.754.108,2.325,2.325,0,0,0,1.4-.485l1.239-.969a1.3,1.3,0,0,1,1.239-.162l1.239.592a.534.534,0,0,0,.7-.269A.391.391,0,0,0,86,48.4Z" transform="translate(-32.819 -19.181)" fill="#ad3400"/>
      <path id="Path_203" data-name="Path 203" d="M69.549,25.2a.324.324,0,0,0,.215-.054l1.992-.969A2.367,2.367,0,0,0,73.05,22.4l.215-1.508a1.087,1.087,0,0,1,.808-.969l1.346-.431a.545.545,0,0,0-.377-1.023L73.7,18.9a2.217,2.217,0,0,0-1.508,1.831l-.215,1.508a1.077,1.077,0,0,1-.646.915l-1.992.969a.534.534,0,0,0-.269.7A.461.461,0,0,0,69.549,25.2Z" transform="translate(-29.075 -5.729)" fill="#ad3400"/>
    </g>
    <path id="Intersection_4" data-name="Intersection 4" d="M902.38-5393.18v-23.879c2.138-.429,4.215-.882,6.27-1.335,9.647-2.127,18.811-4.254,31.51-3.935,24.664.619,40.615,16.094,56.856,16.043s21.092-10.856,42.281-10.753a118.436,118.436,0,0,1,43.332,8.829l32.521,15.031Z" transform="translate(-902.38 5480.187)" fill="#d94100"/>
  </g>
</svg>
